REM MD5 b682fb2df2acee42dd594fcc8e13919b
FILE "Simple 1500 Series Vol. 26 - The Tennis (Japan).bin" BINARY
  TRACK 01 MODE2/2352
    INDEX 01 00:00:00
  TRACK 02 AUDIO
    INDEX 00 00:15:44
    INDEX 01 00:17:44
  TRACK 03 AUDIO
    INDEX 00 03:10:55
    INDEX 01 03:12:55
  TRACK 04 AUDIO
    INDEX 00 06:46:71
    INDEX 01 06:48:71
REM LEADOUT 09:58:71
